<svg id="Layer_1" data-name="Layer 1" xmlns="http://www.w3.org/2000/svg" viewBox="0 0 271.94 182.31"><defs><style>.cls-1{fill:#01947b;}.cls-2{fill:#05967d;}</style></defs><path class="cls-1" d="M276.87,419.35c16.81-2,28.3-10.65,33.91-26.75.28-.81-.15-2.52,1.26-2.29,8.07,1.29,13.21-4.39,19.93-8.34,0,9.53.28,18.58-.12,27.61-.18,3.91-4.54,2.74-6.81,3.17-2.75.51-3,1.46-3.1,3.73-.12,3.07,1.88,2.51,3.63,2.51,16.66,0,33.33-.06,50,.08,2.41,0,3.71-.84,4.37-2.86,1.41-4.3,2.75-8.62,4-13,.57-2.06-1-2.75-2.58-3.59-2.21-1.19-3.77,0-4.25,1.58-3.42,11.07-11.92,11.36-21.31,10.87-8.53-.46-10.76-2.31-10.76-10.89,0-8.34.13-16.67-.07-25-.08-3,.88-4.72,3.51-6.32,23.09-14.07,39.24.6,47.78,15.57a8.22,8.22,0,0,1,.78,4.33c0,4.5-.13,9,0,13.5.17,4.8.63,9.4-6.55,9.06-1.8-.08-3.59,2-3.27,4.11.28,1.85,1.71,2.83,4,2.61,3-.29,6,.11,9-.12,3.24-.26,3.69.74,3.29,3.94-3.86,30.65-42.52,61.86-81.24,43.7-20.62-9.67-34.93-25.65-45.13-45.64A5.69,5.69,0,0,1,276.87,419.35Z" transform="translate(-268.02 -289.93)"/><path class="cls-1" d="M532.58,342.24c-12.29-1-23.58,1-34.79-1.17-2-.38-4.14.21-4.67,2.39s-.34,4.33,2.88,4.62c5.54.49,6.44,4.05,6.09,8.92-.39,5.47-.09,11-.09,17-8.95-5.75-15.58-.06-23,4.66,0-3.61,0-6.39,0-9.16,0-1.86-.38-3.44-2.58-3.44-1.94,0-4.28.07-4.38,2.76-.19,5.57-3.35,6.74-8.17,6.23-4.1-.43-9.45,1.69-12.05-.77s-.75-7.87-.77-12c0-4.28-1.88-9.87.74-12.49s8.22-.71,12.5-.77c9-.11,9,0,11.81,8.3.61,1.8,1.61,3.06,4,2.72,2.06-.29,3-1.19,2.9-3.2-.31-4.59-.58-9.19-1.08-13.76-.15-1.31-1-1.87-2.8-1.76-15,.9-30.07,1.52-45.09-.26-2-.23-3.94-.07-3.92,2.5,0,1.78-1.4,4.39,2.52,4.56s5.22,2.41,5.61,6.77c1.17,13,.46,25.87.82,38.79.07,2.67-.28,4.13-3.49,3.15-12.41-3.78-30.21-21-25.1-41.28,1.26-5,2.47-7.68,7.67-7.57,2.55.06,1.76-1.84,1.86-3.17.16-2-.2-3.75-2.74-3.8a46.78,46.78,0,0,0-7.49.05c-4.35.62-4.48-1.41-3.73-4.77a57.2,57.2,0,0,1,13.4-25.85c18.35-20.79,45.68-26.16,70.32-13.56C509,306.72,522.29,322.24,532.58,342.24Z" transform="translate(-268.02 -289.93)"/><path class="cls-1" d="M297,380.58c.31,8.17-1.17,15.87-6.05,22.63-3.93,5.45-9.59,8-16,9.38-1.95.41-1.77-.9-2.12-1.83-7.58-19.88-5.76-39.38,2.39-58.63,1.26-3,3.19-1.17,4.68-.64,10.88,3.86,17.13,15.63,17.1,25.6Z" transform="translate(-268.02 -289.93)"/><path class="cls-2" d="M280,342.69a145.77,145.77,0,0,1,20.54-28.37,191.38,191.38,0,0,1,23.74-22.06c1.76-1.38,3.71-3.76,5.95-1.19,2.5,2.85-.42,4.37-2.17,6-15.41,14.34-26.17,31.27-29.28,52.69A36.9,36.9,0,0,0,280,342.69Z" transform="translate(-268.02 -289.93)"/><path class="cls-2" d="M529,419c-2.18,5.22-5.21,9.36-8.16,13.5A185.54,185.54,0,0,1,484.48,470c-1.89,1.49-4.39,3.37-6.07,1.38-1.81-2.15.24-4.4,2.24-6.22,13.05-11.85,22.88-25.81,27.59-43,.48-1.76.83-3.33,3.45-3.21C517.29,419.16,522.91,419,529,419Z" transform="translate(-268.02 -289.93)"/><path class="cls-1" d="M515,394.52a19,19,0,0,1,0-2c.33-3.42-1.53-9,.79-9.84,4.52-1.71,10-1.27,15,.31,3,.93,2.34,3.7,3.06,5.67.52,1.42.45,3.28,2.3,3.23,3.82-.12,3,2,2.31,4.14-.78,2.54-1.52,5.1-2.38,7.61-2.93,8.47-6.66,10.38-15.54,8.19-3.89-1-5.51-3.54-5.56-7.32C515,401.18,515,397.85,515,394.52Z" transform="translate(-268.02 -289.93)"/><path class="cls-1" d="M540,364.83c-4.2-.37-6.33.92-6.23,5.42,0,2.08-1.64,4.07-4.73,3.82-4.43-.35-10.2,1.43-13-.77-3-2.33-.89-8.35-1-12.75C514.9,349,515,349,526.44,349c9.44,0,9.45,0,12,9.25C539,360.3,539.38,362.38,540,364.83Z" transform="translate(-268.02 -289.93)"/><path class="cls-2" d="M470.54,385.08a66.37,66.37,0,0,1-16.65,10.25c-2.06.88-2.79.73-3-1.8C450.19,383,450.1,383,460.44,383,463.68,383,466.94,382.77,470.54,385.08Z" transform="translate(-268.02 -289.93)"/></svg>